<svg width="24" height="23" viewBox="0 0 24 23" fill="none" xmlns="http://www.w3.org/2000/svg">
<path fill-rule="evenodd" clip-rule="evenodd" d="M11.9989 0C5.37254 0 0 5.27898 0 11.7914C0 17.0009 3.43804 21.4199 8.20651 22.9798C8.8069 23.0877 9.02569 22.7236 9.02569 22.4109C9.02569 22.1315 9.01538 21.3895 9.00949 20.4058C5.67163 21.1181 4.96737 18.825 4.96737 18.825C4.4215 17.4627 3.63473 17.1001 3.63473 17.1001C2.5452 16.369 3.71724 16.3835 3.71724 16.3835C4.9217 16.4667 5.55524 17.5988 5.55524 17.5988C6.62562 19.4004 8.36416 18.88 9.04779 18.5781C9.15682 17.8167 9.46622 17.2969 9.80951 17.0023C7.14497 16.7048 4.34341 15.6929 4.34341 11.1747C4.34341 9.88769 4.8112 8.83522 5.57881 8.01077C5.45505 7.71254 5.04325 6.51386 5.69594 4.89028C5.69594 4.89028 6.70371 4.57324 8.99623 6.0991C9.95316 5.83707 10.9801 5.70677 12.0004 5.70243C13.0192 5.70677 14.0461 5.83707 15.0045 6.0991C17.2956 4.57324 18.3011 4.89028 18.3011 4.89028C18.956 6.51386 18.5442 7.71254 18.4205 8.01077C19.1895 8.83522 19.6544 9.88769 19.6544 11.1747C19.6544 15.7045 16.8484 16.7012 14.175 16.9929C14.606 17.357 14.9898 18.0765 14.9898 19.1768C14.9898 20.7526 14.975 22.0244 14.975 22.4109C14.975 22.7265 15.1909 23.0935 15.8001 22.9784C20.5649 21.4156 24 16.9994 24 11.7914C24 5.27898 18.6267 0 11.9989 0Z" fill="white"/>
</svg>
