<svg width="19" height="17" viewBox="0 0 19 17" fill="none" xmlns="http://www.w3.org/2000/svg">
<path fill-rule="evenodd" clip-rule="evenodd" d="M1.19388 16.645H4.88487V5.54022H1.19388V16.645ZM3.06385 0.18779C1.80036 0.18779 0.974609 1.01672 0.974609 2.10591C0.974609 3.17202 1.77688 4.02483 3.0153 4.02483H3.03918C4.32694 4.02483 5.12762 3.17202 5.12762 2.10591C5.10335 1.01672 4.32694 0.18779 3.06385 0.18779ZM18.1967 10.2766V16.645H14.5049V10.704C14.5049 9.21172 13.9717 8.19296 12.635 8.19296C11.6146 8.19296 11.0085 8.87903 10.7411 9.54321C10.644 9.78079 10.6189 10.1103 10.6189 10.443V16.645H6.92636C6.92636 16.645 6.9757 6.58206 6.92636 5.54022H10.6189V7.11412L10.5943 7.15033H10.6189V7.11412C11.1096 6.35881 11.9847 5.27957 13.9462 5.27957C16.3757 5.27957 18.1967 6.86659 18.1967 10.2766Z" fill="#F9F9F9"/>
</svg>
