<svg width="22" height="22" viewBox="0 0 22 22" fill="none" xmlns="http://www.w3.org/2000/svg">
<path d="M14.2586 1.35624C13.9158 0.327031 12.8152 -0.232712 11.7868 0.0922999C10.7584 0.435368 10.1991 1.5368 10.5239 2.566L15.5937 18.1666C15.9365 19.1236 16.9829 19.6653 17.9752 19.3764C19.0216 19.0694 19.6531 17.968 19.3103 16.9568C19.3103 16.9207 14.2586 1.35624 14.2586 1.35624Z" fill="white"/>
<path d="M6.4109 3.90217C6.0681 2.87296 4.96754 2.31322 3.93915 2.63823C2.91076 2.9813 2.35146 4.08273 2.67621 5.11193L7.746 20.7125C8.0888 21.6695 9.13523 22.2112 10.1275 21.9223C11.174 21.6153 11.8054 20.5139 11.4626 19.5028C11.4626 19.4666 6.4109 3.90217 6.4109 3.90217Z" fill="white"/>
<path d="M20.6445 14.2664C21.6729 13.9234 22.2322 12.8219 21.9075 11.7927C21.5647 10.7635 20.4641 10.2038 19.4357 10.5288L3.82942 15.6207C2.8732 15.9637 2.33194 17.011 2.62061 18.0041C2.92733 19.0513 4.02788 19.6833 5.03823 19.3402C5.07432 19.3402 20.6445 14.2664 20.6445 14.2664Z" fill="white"/>
<path d="M7.07795 18.6902C8.0883 18.3652 9.40536 17.9319 10.8126 17.4805C10.4879 16.4693 10.0549 15.1512 9.60383 13.7428L5.86914 14.9526L7.07795 18.6902Z" fill="white"/>
<path d="M14.9451 16.1262C16.3524 15.6748 17.6695 15.2415 18.6798 14.9165C18.3551 13.9053 17.9221 12.5872 17.471 11.1788L13.7363 12.3886L14.9451 16.1262Z" fill="white"/>
<path d="M18.0835 6.41199C19.1119 6.06892 19.6712 4.96749 19.3465 3.93828C19.0037 2.90908 17.9031 2.34933 16.8747 2.67435L1.28646 7.74815C0.330233 8.09122 -0.211027 9.13848 0.0776444 10.1316C0.384358 11.1788 1.48492 11.8108 2.49527 11.4677C2.53135 11.4677 18.0835 6.41199 18.0835 6.41199Z" fill="white"/>
<path d="M4.53303 10.8177C5.54338 10.4927 6.86044 10.0593 8.26771 9.60794C7.81667 8.19956 7.38366 6.88145 7.0589 5.8703L3.32422 7.08007L4.53303 10.8177Z" fill="white"/>
<path d="M12.3826 8.27178C13.7899 7.82037 15.107 7.38702 16.1173 7.06201C15.6663 5.65363 15.2333 4.33552 14.9085 3.32437L11.1738 4.53414L12.3826 8.27178Z" fill="white"/>
</svg>
