<svg width="20" height="18" viewBox="0 0 20 18" fill="none" xmlns="http://www.w3.org/2000/svg">
<path fill-rule="evenodd" clip-rule="evenodd" d="M19.8757 2.87433C19.149 3.19667 18.3675 3.41475 17.5481 3.51225C18.3846 3.01083 19.0269 2.21732 19.3301 1.27059C18.5473 1.735 17.6798 2.07207 16.7569 2.25393C16.018 1.46639 14.9646 0.974121 13.7986 0.974121C11.5613 0.974121 9.74665 2.78878 9.74665 5.02645C9.74665 5.34402 9.78246 5.65322 9.85211 5.95009C6.48425 5.78097 3.49843 4.16767 1.49992 1.7159C1.15092 2.31402 0.951146 3.01083 0.951146 3.75341C0.951146 5.15857 1.66666 6.39938 2.75346 7.12604C2.08968 7.10495 1.4645 6.92269 0.918514 6.61865L0.918116 6.66999C0.918116 8.63348 2.31532 10.2706 4.16858 10.6431C3.82912 10.7358 3.47057 10.7856 3.10127 10.7856C2.83982 10.7856 2.58593 10.7601 2.3388 10.7132C2.85454 12.3225 4.35044 13.494 6.1241 13.5267C4.73685 14.6139 2.99024 15.2617 1.09122 15.2617C0.764507 15.2617 0.441371 15.2426 0.125 15.2048C1.91777 16.3549 4.048 17.0259 6.33621 17.0259C13.7894 17.0259 17.8656 10.8517 17.8656 5.49603C17.8656 5.32054 17.8617 5.14544 17.8537 4.97193C18.6456 4.40048 19.3325 3.68695 19.8757 2.87433Z" fill="#F9F9F9"/>
</svg>
